<svg width="24" height="22" fill="none" xmlns="http://www.w3.org/2000/svg"><path d="M12 8.861a2.14 2.14 0 100 4.28 2.14 2.14 0 000-4.28zm-5.992 6.394l-.472-.12C2.018 14.246 0 12.737 0 10.996s2.018-3.25 5.536-4.139l.472-.119.133.468a23.53 23.53 0 001.363 3.578l.101.213-.101.213a23.31 23.31 0 00-1.363 3.578l-.133.467zM5.317 7.95c-2.674.751-4.315 1.9-4.315 3.046 0 1.145 1.641 2.294 4.315 3.046.327-1.04.722-2.058 1.182-3.046A24.751 24.751 0 015.317 7.95zm12.675 7.305l-.133-.469a23.354 23.354 0 00-1.364-3.577l-.101-.213.101-.213a23.412 23.412 0 001.364-3.578l.133-.468.473.119C21.982 7.745 24 9.254 24 10.996c0 1.742-2.018 3.25-5.535 4.139l-.473.12zm-.491-4.259c.48 1.039.877 2.06 1.182 3.046 2.675-.752 4.315-1.901 4.315-3.046 0-1.146-1.641-2.294-4.315-3.046a24.782 24.782 0 01-1.182 3.046zM5.31 7.945l-.133-.467C4.188 3.992 4.488 1.494 6 .622c1.483-.856 3.864.155 6.359 2.716l.34.349-.34.349a23.552 23.552 0 00-2.422 2.967l-.135.193-.235.02c-1.276.1-2.542.305-3.785.61l-.472.119zm1.896-6.63c-.268 0-.505.058-.705.173-.994.573-1.17 2.565-.485 5.253a25.122 25.122 0 013.233-.501 24.846 24.846 0 012.052-2.544c-1.56-1.519-3.037-2.381-4.095-2.381zm9.589 20.362c-.001 0-.001 0 0 0-1.425 0-3.255-1.073-5.154-3.023l-.34-.349.34-.349a23.53 23.53 0 002.421-2.968l.135-.193.234-.02c1.277-.1 2.543-.304 3.787-.609l.472-.119.134.468c.987 3.484.688 5.983-.824 6.854a2.38 2.38 0 01-1.205.308zm-4.096-3.381c1.56 1.519 3.037 2.381 4.095 2.381h.001c.267 0 .505-.058.704-.173.994-.573 1.171-2.566.485-5.254a25.01 25.01 0 01-3.234.501 24.681 24.681 0 01-2.051 2.545zM18.69 7.945l-.472-.119a23.48 23.48 0 00-3.787-.61l-.234-.02-.135-.193a23.408 23.408 0 00-2.421-2.967l-.34-.349.34-.349C14.135.778 16.515-.233 18 .622c1.512.872 1.812 3.37.824 6.855l-.134.468zM14.75 6.24c1.142.104 2.227.273 3.234.501.686-2.688.509-4.68-.485-5.253-.988-.571-2.845.304-4.8 2.208A24.855 24.855 0 0114.75 6.24zM7.206 21.677A2.38 2.38 0 016 21.369c-1.512-.871-1.812-3.369-.823-6.854l.132-.468.472.119c1.155.291 2.429.496 3.785.609l.235.02.134.193a23.61 23.61 0 002.422 2.968l.34.349-.34.349c-1.898 1.95-3.728 3.023-5.151 3.023zm-1.19-6.427c-.686 2.688-.509 4.681.485 5.254.987.563 2.843-.305 4.8-2.208a25.004 25.004 0 01-2.052-2.545 24.978 24.978 0 01-3.233-.501zm5.984.628c-.823 0-1.669-.036-2.516-.106l-.235-.02-.135-.193c-.48-.688-.93-1.396-1.35-2.122-.42-.726-.808-1.47-1.166-2.228l-.1-.213.1-.213c.358-.758.747-1.502 1.166-2.228.414-.716.869-1.43 1.35-2.122l.135-.193.235-.02a29.785 29.785 0 015.033 0l.234.02.134.193a30.005 30.005 0 012.517 4.35l.101.213-.101.213a29.604 29.604 0 01-2.517 4.35l-.134.193-.234.02c-.847.07-1.694.106-2.517.106zm-2.197-1.084c1.48.111 2.914.111 4.395 0a29.01 29.01 0 002.196-3.798 28.575 28.575 0 00-2.197-3.798 29.031 29.031 0 00-4.394 0 28.477 28.477 0 00-2.197 3.798 29.11 29.11 0 002.197 3.798z" fill="#61DAFB"/></svg>