<svg width="24" height="24" viewBox="0 0 24 24" fill="none" xmlns="http://www.w3.org/2000/svg">
    <path d="M21.0157 18.1202L12.351 23V19.1993L17.7496 16.2426L21.0156 18.1202H21.0157ZM21.6084 17.5858V7.3805L18.4376 9.2025V15.7618L21.6084 17.5858ZM2.9257 18.1202L11.5904 23V19.1993L6.1918 16.2426L2.9258 18.1202H2.9257ZM2.333 17.5858V7.3805L5.5037 9.2025V15.7618L2.333 17.5858ZM2.704 6.7202L11.5904 1.7146V5.3894L5.8974 8.507L5.854 8.5318L2.704 6.7202ZM21.2375 6.7202L12.351 1.7146V5.3894L18.044 8.5071L18.0874 8.5319L21.2374 6.7203L21.2375 6.7202ZM11.5905 18.3348L6.2643 15.4193V9.642L11.5903 12.704V18.3348H11.5905ZM12.351 18.3348L17.677 15.4193V9.642L12.351 12.704V18.3348ZM6.625 8.9734L11.9717 6.0454L17.3185 8.9734L11.9717 12.0478L6.625 8.9734Z"
          fill="#8DD6F9"/>
</svg>
